<?xml version="1.0" encoding="utf-8"?>
<!-- Generator: Adobe Illustrator 16.0.0, SVG Export Plug-In . SVG Version: 6.00 Build 0)  -->
<!DOCTYPE svg PUBLIC "-//W3C//DTD SVG 1.1//EN" "http://www.w3.org/Graphics/SVG/1.1/DTD/svg11.dtd">
<svg version="1.1" xmlns="http://www.w3.org/2000/svg" xmlns:xlink="http://www.w3.org/1999/xlink" x="0px" y="0px" width="800px"
	 height="600px" viewBox="0 0 800 600" enable-background="new 0 0 800 600" xml:space="preserve">
<g id="Layer_2">
	<rect fill="#F95006" width="800" height="600"/>
</g>
<g id="Layer_1">
	<g>
		<ellipse fill="#F2F2F2" cx="227.016" cy="553.52" rx="88.668" ry="9.898"/>
		<g>
			<g>
				<g>
					<g>
						<g>
							<g>
								<path fill="#F5F5F5" d="M272.452,405.839l-14.134-2.639c0,0,1.693-5.638,4.118-16.42l13.633,2.905
									C274.943,394.839,273.746,400.202,272.452,405.839z"/>
							</g>
							<g>
								<path fill="#FDDCBE" d="M262.436,386.78c4.069-18.097,11.251-69.177,14.902-114.007c0,0,0.615-3.809,2.267-3.433
									c2.207,0.503,1.747,3.305,1.495,4.356c0.281-0.955,1.177-3.363,2.978-2.875c1.815,0.491,1.379,2.98,1.152,3.896l0.022,0.005
									c0.355-0.938,1.544-3.521,3.685-2.908c1.615,0.462,1.577,2.02,1.314,3.141c-0.053,0.16-0.096,0.318-0.127,0.471
									c0.044-0.144,0.088-0.303,0.127-0.471c0.357-1.082,1.198-2.216,2.538-1.969c1.486,0.353,0.795,4.117,0.795,4.117
									c-1.146,6.316-4.387,52.505-17.515,112.582L262.436,386.78z"/>
							</g>
							<g>
								<g>
									<path fill="#E6E6E6" d="M262.436,386.78c1.36-6.049,3.069-15.796,4.876-27.749c2.226,5.6,6.342,16.351,9.552,26.957
										c-0.263,1.229-0.524,2.456-0.795,3.697c-1.126,5.153-2.324,10.517-3.617,16.153l-14.134-2.64
										C258.318,403.199,260.012,397.563,262.436,386.78z"/>
								</g>
							</g>
						</g>
						<g>
							<g>
								<g>
									<g>
										<path fill="#FDDCBE" d="M271.593,392.184c0,0-4.739-150.035-116.252-94.569c0,0-18.794,37.562-13.503,108.345
											C230.567,416.316,271.593,392.184,271.593,392.184z"/>
									</g>
									<g>
										<path fill="#574939" d="M245.138,236.167c0,0,61.538,84.925-76.578,89.391l0.236,26.975c0,0-12.877-10.352-14.884,2.509
											c-2.004,12.859,14.484,6.854,14.484,6.854s-11.502,34.026-26.079,44.121c0,0-52.633-111.672-0.608-114.714
											c0,0-0.014-19.976,27.543-32.431C208.561,241.105,233.851,284.554,245.138,236.167z"/>
									</g>
								</g>
								<g>
									<path fill="#574939" d="M159.107,483.563l4.307,33.197l-2.708,36.598c0,0,46.182,12.487,34.542-5.731
										c-10.75-16.826-27.524-2.847-27.524-2.847l6.592-29.603l1.092-22.742c0,0,46.763,2.882,87.06-8.788l2.357,26.539
										l-6.09,38.242c0,0,42.748,14.35,30.912-5.524c-6.561-11.019-22.683-4.104-22.683-4.104l8.562-28.668l1.288-38.934
										L159.107,483.563z"/>
								</g>
								<g>
									<g>
										<g>
											<path fill="#F5F5F5" d="M271.593,392.184l5.219,79.015c0,0-48.191,14.223-117.705,12.365l-17.27-77.604
												C141.837,405.96,222.215,413.105,271.593,392.184z"/>
										</g>
									</g>
								</g>
								<g>
									<g>
										<g>
											<polygon fill="#E6E6E6" points="243.672,406.952 246.436,411.264 243.484,416.821 250.037,463.66 237.993,475.05 
												226.243,464.682 236.896,417.896 232.508,412.618 234.292,408.773 											"/>
										</g>
									</g>
								</g>
								<g>
									<polygon fill="#574939" points="243.672,406.952 246.436,411.264 243.484,416.821 252.783,462.636 240.739,474.025 
										228.989,463.656 236.896,417.896 232.508,412.618 234.292,408.773 									"/>
								</g>
								<g>
									<g>
										<path fill="#EB7D86" d="M244.3,366.771c0,0-24.067,2.031-38.165,8.437c0,0,0.958,19.686,23.369,15.404
											C251.687,386.375,244.3,366.771,244.3,366.771z"/>
									</g>
								</g>
							</g>
						</g>
						<g>
							<path fill="#F5F5F5" d="M145.582,423.486l11.407-8.753c0,0-4.062-4.26-11.105-12.776l-10.84,8.764
								C138.38,414.806,141.876,419.046,145.582,423.486z"/>
						</g>
						<g>
							<path fill="#FDDCBE" d="M145.883,401.957c-11.821-14.293-40.19-53.885-63.743-92.204c0,0-2.272-3.118-3.575-2.034
								c-1.74,1.448-0.061,3.737,0.64,4.561c-0.683-0.724-2.572-2.465-3.958-1.215c-1.396,1.26,0.12,3.281,0.737,3.994l-0.018,0.016
								c-0.741-0.676-2.97-2.44-4.602-0.925c-1.231,1.144-0.491,2.516,0.25,3.396c0.119,0.118,0.229,0.24,0.327,0.362
								c-0.105-0.107-0.216-0.23-0.327-0.362c-0.809-0.803-2.071-1.434-3.155-0.606c-1.166,0.988,1.156,4.031,1.156,4.031
								c3.881,5.112,26.521,42.128,65.427,89.75L145.883,401.957z"/>
						</g>
					</g>
				</g>
			</g>
			<g>
				
					<ellipse transform="matrix(0.9819 -0.1895 0.1895 0.9819 -63.442 43.2476)" fill="#574939" cx="194.471" cy="353.436" rx="4.487" ry="8.717"/>
				
					<ellipse transform="matrix(0.9819 -0.1895 0.1895 0.9819 -60.4314 53.4749)" fill="#574939" cx="249.482" cy="342.821" rx="4.487" ry="8.717"/>
			</g>
		</g>
	</g>
	<g>
		<g>
			<ellipse fill="#F2F2F2" cx="538.908" cy="552.495" rx="95.458" ry="10.656"/>
		</g>
		<g>
			<path fill="#726658" d="M538.908,555.495c-1.657,0-3-1.343-3-3V110.682c0-1.657,1.343-3,3-3s3,1.343,3,3v441.813
				C541.908,554.152,540.565,555.495,538.908,555.495z"/>
		</g>
		<g>
			<path fill="#726658" d="M538.908,220.25c-0.768,0-1.535-0.293-2.121-0.879l-48.908-48.908c-1.172-1.171-1.172-3.071,0-4.242
				c1.172-1.172,3.07-1.172,4.242,0l48.908,48.908c1.172,1.171,1.172,3.071,0,4.242C540.443,219.957,539.676,220.25,538.908,220.25z
				"/>
		</g>
		<g>
			<path fill="#726658" d="M539.294,316.644c-0.768,0-1.535-0.293-2.121-0.879c-1.172-1.171-1.172-3.071,0-4.242l120.836-120.836
				c1.172-1.172,3.07-1.172,4.242,0c1.172,1.171,1.172,3.071,0,4.242L541.415,315.765
				C540.829,316.351,540.062,316.644,539.294,316.644z"/>
		</g>
		<g>
			<path fill="#726658" d="M586.742,269.195c-1.657,0-3-1.343-3-3v-52.906c0-1.657,1.343-3,3-3s3,1.343,3,3v52.906
				C589.742,267.852,588.399,269.195,586.742,269.195z"/>
		</g>
		<g>
			<path fill="#726658" d="M538.908,406.862c-0.768,0-1.535-0.293-2.121-0.879L388.911,258.108c-1.172-1.171-1.172-3.071,0-4.242
				c1.171-1.172,3.071-1.172,4.242,0l147.876,147.875c1.172,1.171,1.172,3.071,0,4.242
				C540.443,406.569,539.676,406.862,538.908,406.862z"/>
		</g>
		<g>
			<path fill="#726658" d="M497.232,365.188c-1.657,0-3-1.343-3-3v-52.998c0-1.657,1.343-3,3-3s3,1.343,3,3v52.998
				C500.232,363.845,498.89,365.188,497.232,365.188z"/>
		</g>
		<g>
			<path fill="#726658" d="M459.182,327.137h-43.074c-1.657,0-3-1.343-3-3s1.343-3,3-3h43.074c1.657,0,3,1.343,3,3
				S460.839,327.137,459.182,327.137z"/>
		</g>
		<g>
			<path fill="#726658" d="M539.459,483.628c-0.768,0-1.535-0.293-2.121-0.879c-1.172-1.171-1.172-3.071,0-4.242l116.69-116.69
				c1.172-1.172,3.07-1.172,4.242,0c1.172,1.171,1.172,3.071,0,4.242l-116.69,116.69
				C540.994,483.335,540.227,483.628,539.459,483.628z"/>
		</g>
		<g>
			<path fill="#726658" d="M572.576,450.511c-1.657,0-3-1.343-3-3v-55.513c0-1.657,1.343-3,3-3s3,1.343,3,3v55.513
				C575.576,449.168,574.233,450.511,572.576,450.511z"/>
		</g>
		<g>
			<path fill="#726658" d="M634.366,424.893h-36.172c-1.657,0-3-1.343-3-3s1.343-3,3-3h36.172c1.657,0,3,1.343,3,3
				S636.023,424.893,634.366,424.893z"/>
		</g>
		<g>
			<g>
				<g>
					<circle fill="#FFC64A" cx="654.809" cy="363.944" r="28.06"/>
				</g>
			</g>
			<g>
				<g>
					<circle fill="#DBAA40" cx="654.809" cy="363.944" r="22.84"/>
				</g>
			</g>
			<g>
				<g>
					<g>
						<path fill="#FFC64A" d="M647.896,374.069c-1.141-1.013-1.711-2.624-1.711-4.836v-0.942h6.284v0.663
							c0,1.048,0.198,1.77,0.594,2.165c0.396,0.396,0.919,0.594,1.571,0.594c0.675,0,1.191-0.222,1.554-0.664
							c0.36-0.441,0.541-0.978,0.541-1.605c0-0.791-0.251-1.42-0.751-1.886c-0.5-0.465-1.129-0.866-1.885-1.204
							c-0.757-0.337-1.577-0.675-2.462-1.013c-0.885-0.337-1.705-0.779-2.461-1.327c-0.757-0.546-1.385-1.262-1.886-2.146
							s-0.75-2.036-0.75-3.457c0-4.352,2.129-6.878,6.389-7.576v-2.024h3.212v2.024c2.327,0.233,4.015,0.938,5.063,2.112
							c1.048,1.176,1.571,2.963,1.571,5.359h-6.075v-0.523c0-0.698-0.151-1.31-0.453-1.833c-0.304-0.523-0.769-0.785-1.397-0.785
							c-0.698,0-1.21,0.227-1.536,0.681c-0.326,0.453-0.488,0.948-0.488,1.483c0,0.815,0.262,1.455,0.785,1.92
							c0.523,0.466,1.181,0.868,1.973,1.205c0.791,0.338,1.642,0.663,2.548,0.978c0.908,0.314,1.758,0.751,2.55,1.31
							c0.791,0.559,1.449,1.291,1.973,2.199c0.523,0.907,0.786,2.118,0.786,3.631c0,2.374-0.618,4.132-1.852,5.271
							c-1.233,1.141-3.049,1.839-5.446,2.096v3.142h-3.212v-3.142C650.712,375.704,649.036,375.082,647.896,374.069z"/>
					</g>
				</g>
			</g>
			<g>
				<g>
					<path fill="#E8F0EC" d="M620.371,385.632c-0.568-0.893-0.298-2.075,0.596-2.635l0,0c0.894-0.568,2.075-0.298,2.64,0.591l0,0
						c0.563,0.898,0.293,2.08-0.596,2.645l0,0c-0.771,0.482-1.76,0.352-2.378-0.267l0,0
						C620.534,385.866,620.443,385.759,620.371,385.632z M632.575,395.779c0.56-0.894,1.742-1.165,2.64-0.601l0,0
						c0.897,0.564,1.164,1.742,0.6,2.64l0,0c-0.559,0.893-1.741,1.164-2.639,0.6l0,0l0,0l0,0c-0.122-0.076-0.234-0.162-0.334-0.262
						l0,0C632.224,397.538,632.093,396.551,632.575,395.779z M614.375,368.546c0,0,0,0,0.005,0.005l0,0
						c-0.122-1.052,0.636-1.999,1.683-2.116l0,0c1.052-0.122,1.999,0.636,2.116,1.683l0,0c0.122,1.052-0.637,1.999-1.683,2.116l0,0
						c-0.604,0.072-1.178-0.148-1.575-0.546l0,0C614.628,369.395,614.43,368.997,614.375,368.546z M648.583,402.267
						c0.113-1.052,1.061-1.81,2.112-1.688l0,0c1.051,0.113,1.804,1.065,1.691,2.116l0,0c-0.117,1.047-1.064,1.805-2.116,1.683l0,0
						c0,0,0,0-0.005,0.005l0,0c-0.446-0.05-0.839-0.253-1.136-0.551l0,0C648.732,403.435,648.512,402.871,648.583,402.267z
						 M616.369,350.563c0.348-0.997,1.439-1.529,2.437-1.183l0,0c1.002,0.343,1.529,1.439,1.183,2.437l0,0
						c-0.348,0.997-1.439,1.529-2.437,1.182l0,0c-0.284-0.104-0.528-0.257-0.727-0.455l0,0
						C616.324,352.042,616.121,351.28,616.369,350.563z M665.818,401.184c-0.348-0.997,0.18-2.093,1.177-2.44l0,0
						c0.998-0.348,2.09,0.176,2.441,1.178l0,0c0.347,0.997-0.181,2.084-1.178,2.44l0,0l0,0l0,0c-0.717,0.248-1.484,0.05-1.989-0.456
						l0,0C666.075,401.703,665.917,401.464,665.818,401.184z M625.979,335.223c0.749-0.749,1.963-0.754,2.712-0.005l0,0
						c0.744,0.744,0.748,1.958,0.004,2.703l0,0c-0.749,0.748-1.962,0.753-2.707,0.009l0,0
						C625.239,337.181,625.235,335.967,625.979,335.223z M680.878,390.013c0.014-0.014,0.022-0.022,0.036-0.036l0,0
						c0.014-0.022,0.032-0.04,0.055-0.063l0,0c0.744-0.745,1.958-0.749,2.707-0.01l0,0c0.749,0.749,0.753,1.963,0.009,2.707l0,0
						c-0.019,0.019-0.036,0.036-0.055,0.055l0,0c-0.018,0.018-0.031,0.031-0.049,0.05l0,0c0,0,0,0,0.004,0.004l0,0
						c-0.749,0.749-1.962,0.745-2.707,0l0,0C680.13,391.972,680.129,390.762,680.878,390.013z M640.119,327.995
						c-0.352-1.002,0.171-2.094,1.169-2.441l0,0c1.001-0.352,2.093,0.172,2.44,1.169l0,0c0.352,1.001-0.171,2.093-1.168,2.44l0,0
						c-0.723,0.253-1.489,0.055-1.994-0.451l0,0C640.372,328.519,640.219,328.274,640.119,327.995z M689.649,376.008
						L689.649,376.008c0.347-0.996,1.438-1.528,2.437-1.182l0,0c1.001,0.343,1.528,1.431,1.187,2.432l0,0l0,0l0,0
						c-0.348,0.998-1.439,1.529-2.438,1.183l0,0c-0.284-0.095-0.531-0.252-0.73-0.451l0,0
						C689.604,377.488,689.405,376.722,689.649,376.008z M657.165,325.188c0.112-1.052,1.06-1.81,2.106-1.692l0,0
						c1.051,0.113,1.81,1.061,1.696,2.112l0,0c-0.112,1.051-1.06,1.809-2.111,1.696l0,0c-0.451-0.055-0.849-0.253-1.146-0.551l0,0
						C657.313,326.356,657.097,325.788,657.165,325.188z M691.427,359.703L691.427,359.703c-0.122-1.051,0.637-1.999,1.688-2.121
						l0,0c1.051-0.121,1.998,0.637,2.116,1.684l0,0c0.122,1.051-0.627,1.999-1.679,2.12l0,0c-0.604,0.072-1.178-0.148-1.574-0.546
						l0,0C691.68,360.542,691.48,360.154,691.427,359.703z M673.741,330.034c0.559-0.894,1.741-1.164,2.635-0.604l0,0
						c0.901,0.56,1.173,1.741,0.608,2.639l0,0c-0.56,0.894-1.741,1.164-2.635,0.604l0,0c-0.126-0.081-0.243-0.171-0.343-0.271l0,0
						C673.389,331.784,673.258,330.806,673.741,330.034z M685.972,344.241L685.972,344.241c-0.559-0.894-0.298-2.075,0.596-2.644
						l0,0c0.889-0.563,2.075-0.298,2.644,0.596l0,0l0,0l0,0c0.564,0.889,0.298,2.075-0.595,2.644l0,0
						c-0.771,0.482-1.756,0.356-2.378-0.267l0,0C686.139,344.472,686.049,344.363,685.972,344.241z"/>
				</g>
			</g>
		</g>
		<g>
			<g>
				<g>
					<circle fill="#FFC64A" cx="391.038" cy="255.983" r="28.059"/>
				</g>
			</g>
			<g>
				<g>
					<circle fill="#DBAA40" cx="391.038" cy="255.983" r="22.84"/>
				</g>
			</g>
			<g>
				<g>
					<g>
						<path fill="#FFC64A" d="M384.126,266.108c-1.141-1.012-1.711-2.624-1.711-4.835v-0.942h6.284v0.664
							c0,1.047,0.198,1.769,0.594,2.164c0.395,0.396,0.919,0.594,1.571,0.594c0.675,0,1.192-0.221,1.553-0.664
							c0.361-0.441,0.541-0.977,0.541-1.605c0-0.792-0.25-1.419-0.75-1.885c-0.5-0.465-1.129-0.867-1.885-1.205
							c-0.757-0.337-1.578-0.675-2.461-1.013c-0.885-0.337-1.706-0.78-2.462-1.327c-0.756-0.546-1.385-1.262-1.885-2.147
							s-0.75-2.037-0.75-3.457c0-4.352,2.13-6.878,6.389-7.577v-2.025h3.211v2.025c2.328,0.233,4.015,0.938,5.063,2.112
							c1.048,1.176,1.571,2.962,1.571,5.359h-6.075v-0.523c0-0.699-0.151-1.31-0.453-1.833c-0.303-0.524-0.768-0.786-1.397-0.786
							c-0.698,0-1.21,0.227-1.536,0.681c-0.326,0.454-0.488,0.949-0.488,1.484c0,0.815,0.261,1.455,0.785,1.92
							c0.523,0.466,1.181,0.867,1.973,1.204c0.792,0.338,1.641,0.664,2.548,0.978c0.908,0.314,1.758,0.75,2.549,1.309
							c0.791,0.559,1.449,1.292,1.972,2.199c0.523,0.908,0.786,2.119,0.786,3.631c0,2.374-0.618,4.132-1.851,5.272
							c-1.234,1.141-3.049,1.838-5.447,2.095v3.142h-3.211v-3.142C386.942,267.743,385.267,267.121,384.126,266.108z"/>
					</g>
				</g>
			</g>
			<g>
				<g>
					<path fill="#E8F0EC" d="M412.727,290.42c-0.894,0.569-2.076,0.298-2.636-0.596l0,0c-0.568-0.893-0.297-2.075,0.592-2.639l0,0
						c0.897-0.564,2.079-0.293,2.644,0.596l0,0c0.482,0.771,0.352,1.759-0.266,2.377l0,0
						C412.961,290.258,412.853,290.348,412.727,290.42z M422.873,278.216c-0.894-0.56-1.164-1.742-0.601-2.64l0,0
						c0.564-0.897,1.742-1.164,2.64-0.6l0,0c0.894,0.559,1.164,1.741,0.601,2.639l0,0l0,0l0,0c-0.077,0.122-0.162,0.234-0.262,0.334
						l0,0C424.633,278.568,423.645,278.699,422.873,278.216z M395.64,296.417c0,0,0,0,0.004-0.004l0,0
						c-1.051,0.122-1.999-0.636-2.116-1.683l0,0c-0.122-1.051,0.636-1.999,1.683-2.116l0,0c1.051-0.122,1.999,0.636,2.116,1.683l0,0
						c0.072,0.604-0.149,1.178-0.546,1.575l0,0C396.488,296.164,396.091,296.362,395.64,296.417z M429.36,262.208
						c-1.051-0.113-1.809-1.06-1.687-2.112l0,0c0.112-1.051,1.064-1.804,2.116-1.691l0,0c1.047,0.117,1.805,1.064,1.683,2.116l0,0
						c0,0,0,0,0.004,0.004l0,0c-0.05,0.446-0.253,0.839-0.55,1.136l0,0C430.529,262.06,429.966,262.28,429.36,262.208z
						 M377.657,294.422c-0.998-0.347-1.53-1.439-1.182-2.436l0,0c0.343-1.002,1.439-1.53,2.436-1.183l0,0
						c0.998,0.348,1.53,1.439,1.182,2.437l0,0c-0.104,0.284-0.257,0.528-0.456,0.727l0,0
						C379.137,294.468,378.374,294.67,377.657,294.422z M428.278,244.974c-0.997,0.348-2.094-0.18-2.441-1.177l0,0
						c-0.347-0.998,0.177-2.089,1.178-2.441l0,0c0.997-0.347,2.085,0.181,2.441,1.178l0,0l0,0l0,0
						c0.248,0.717,0.049,1.484-0.456,1.989l0,0C428.797,244.716,428.558,244.875,428.278,244.974z M362.317,284.813
						c-0.749-0.749-0.754-1.963-0.005-2.712l0,0c0.745-0.744,1.958-0.749,2.703-0.004l0,0c0.749,0.749,0.753,1.962,0.009,2.707l0,0
						C364.275,285.552,363.061,285.557,362.317,284.813z M417.106,229.914c-0.013-0.013-0.021-0.022-0.036-0.036l0,0
						c-0.022-0.014-0.04-0.032-0.063-0.054l0,0c-0.744-0.744-0.749-1.958-0.009-2.707l0,0c0.749-0.749,1.962-0.753,2.707-0.009l0,0
						c0.018,0.018,0.036,0.036,0.054,0.054l0,0c0.019,0.018,0.031,0.031,0.05,0.049l0,0c0,0,0,0,0.005-0.004l0,0
						c0.749,0.749,0.744,1.962,0,2.707l0,0C419.065,230.662,417.855,230.663,417.106,229.914z M355.089,270.672
						c-1.001,0.352-2.093-0.171-2.441-1.168l0,0c-0.352-1.001,0.171-2.093,1.168-2.441l0,0c1.002-0.352,2.094,0.172,2.441,1.168l0,0
						c0.252,0.722,0.054,1.489-0.451,1.995l0,0C355.612,270.42,355.369,270.573,355.089,270.672z M403.103,221.143L403.103,221.143
						c-0.997-0.347-1.529-1.439-1.182-2.437l0,0c0.343-1.001,1.43-1.529,2.432-1.187l0,0l0,0l0,0
						c0.997,0.348,1.529,1.439,1.182,2.437l0,0c-0.095,0.284-0.252,0.532-0.451,0.73l0,0
						C404.582,221.188,403.815,221.386,403.103,221.143z M352.283,253.627c-1.051-0.112-1.81-1.06-1.692-2.106l0,0
						c0.113-1.051,1.061-1.81,2.112-1.697l0,0c1.051,0.113,1.809,1.061,1.696,2.112l0,0c-0.054,0.451-0.252,0.848-0.551,1.146l0,0
						C353.451,253.479,352.883,253.695,352.283,253.627z M386.797,219.365L386.797,219.365c-1.051,0.122-1.999-0.637-2.121-1.688
						l0,0c-0.122-1.051,0.636-1.999,1.683-2.116l0,0c1.052-0.123,1.999,0.627,2.121,1.678l0,0c0.072,0.604-0.148,1.177-0.545,1.574
						l0,0C387.637,219.112,387.249,219.311,386.797,219.365z M357.128,237.051c-0.894-0.56-1.165-1.742-0.605-2.635l0,0
						c0.56-0.902,1.742-1.173,2.639-0.609l0,0c0.894,0.56,1.165,1.742,0.605,2.635l0,0c-0.081,0.126-0.172,0.244-0.271,0.343l0,0
						C358.878,237.403,357.899,237.534,357.128,237.051z M371.335,224.82L371.335,224.82c-0.893,0.559-2.075,0.298-2.644-0.596l0,0
						c-0.564-0.889-0.298-2.075,0.595-2.644l0,0l0,0l0,0c0.889-0.564,2.076-0.298,2.644,0.595l0,0
						c0.483,0.771,0.356,1.755-0.266,2.378l0,0C371.566,224.653,371.458,224.743,371.335,224.82z"/>
				</g>
			</g>
		</g>
		<g>
			<g>
				<g>
					<circle fill="#FFC64A" cx="660.134" cy="192.813" r="28.06"/>
				</g>
			</g>
			<g>
				<g>
					<circle fill="#DBAA40" cx="660.134" cy="192.813" r="22.84"/>
				</g>
			</g>
			<g>
				<g>
					<g>
						<path fill="#FFC64A" d="M653.222,202.938c-1.142-1.013-1.711-2.624-1.711-4.835v-0.943h6.284v0.664
							c0,1.047,0.197,1.769,0.594,2.165c0.395,0.396,0.919,0.594,1.571,0.594c0.675,0,1.191-0.221,1.554-0.664
							c0.36-0.442,0.541-0.978,0.541-1.606c0-0.791-0.251-1.419-0.751-1.885c-0.501-0.465-1.13-0.867-1.885-1.205
							c-0.758-0.337-1.577-0.675-2.462-1.013c-0.885-0.337-1.705-0.779-2.461-1.327c-0.757-0.546-1.386-1.262-1.886-2.147
							c-0.501-0.884-0.751-2.036-0.751-3.457c0-4.352,2.13-6.877,6.39-7.576v-2.025h3.212v2.025
							c2.327,0.233,4.015,0.938,5.063,2.112c1.048,1.176,1.571,2.962,1.571,5.359h-6.075v-0.524c0-0.698-0.152-1.309-0.453-1.833
							c-0.304-0.523-0.769-0.785-1.397-0.785c-0.698,0-1.211,0.227-1.536,0.681c-0.326,0.454-0.488,0.949-0.488,1.484
							c0,0.815,0.262,1.455,0.785,1.92c0.523,0.466,1.181,0.868,1.973,1.205c0.791,0.338,1.641,0.664,2.548,0.978
							c0.908,0.314,1.758,0.751,2.55,1.31c0.79,0.559,1.449,1.292,1.973,2.199s0.785,2.119,0.785,3.631
							c0,2.375-0.617,4.132-1.851,5.272c-1.233,1.141-3.049,1.838-5.446,2.095v3.142h-3.212v-3.142
							C656.037,204.574,654.361,203.951,653.222,202.938z"/>
					</g>
				</g>
			</g>
			<g>
				<g>
					<path fill="#E8F0EC" d="M625.696,214.501c-0.568-0.893-0.298-2.075,0.596-2.635l0,0c0.894-0.569,2.075-0.298,2.64,0.591l0,0
						c0.563,0.897,0.293,2.08-0.596,2.644l0,0c-0.771,0.482-1.76,0.352-2.378-0.266l0,0
						C625.859,214.736,625.769,214.628,625.696,214.501z M637.9,224.648c0.56-0.894,1.742-1.165,2.64-0.601l0,0
						c0.897,0.564,1.164,1.742,0.6,2.64l0,0c-0.56,0.893-1.741,1.164-2.64,0.6l0,0l0,0l0,0c-0.121-0.077-0.234-0.162-0.334-0.262
						l0,0C637.549,226.408,637.418,225.42,637.9,224.648z M619.7,197.416c0,0,0,0,0.005,0.004l0,0
						c-0.122-1.051,0.636-1.999,1.683-2.116l0,0c1.051-0.122,1.999,0.637,2.116,1.683l0,0c0.122,1.051-0.637,1.999-1.684,2.116l0,0
						c-0.604,0.072-1.177-0.149-1.574-0.546l0,0C619.953,198.264,619.754,197.867,619.7,197.416z M653.908,231.136
						c0.113-1.051,1.061-1.809,2.111-1.687l0,0c1.052,0.113,1.805,1.065,1.692,2.116l0,0c-0.117,1.047-1.064,1.805-2.116,1.683l0,0
						c0,0,0,0-0.005,0.004l0,0c-0.446-0.05-0.839-0.253-1.136-0.55l0,0C654.058,232.304,653.837,231.741,653.908,231.136z
						 M621.694,179.432c0.348-0.997,1.439-1.529,2.437-1.182l0,0c1.002,0.343,1.529,1.439,1.183,2.437l0,0
						c-0.348,0.997-1.439,1.529-2.437,1.182l0,0c-0.284-0.104-0.528-0.257-0.727-0.455l0,0
						C621.649,180.912,621.446,180.149,621.694,179.432z M671.144,230.053c-0.348-0.997,0.18-2.093,1.177-2.441l0,0
						c0.998-0.347,2.09,0.176,2.441,1.178l0,0c0.347,0.997-0.181,2.084-1.178,2.441l0,0l0,0l0,0
						c-0.717,0.248-1.484,0.049-1.989-0.456l0,0C671.4,230.572,671.242,230.333,671.144,230.053z M631.305,164.092
						c0.749-0.749,1.963-0.753,2.711-0.004l0,0c0.745,0.744,0.749,1.958,0.005,2.703l0,0c-0.749,0.749-1.962,0.753-2.707,0.009l0,0
						C630.564,166.05,630.56,164.836,631.305,164.092z M686.203,218.882c0.014-0.014,0.022-0.022,0.036-0.036l0,0
						c0.014-0.022,0.032-0.041,0.054-0.063l0,0c0.745-0.745,1.958-0.749,2.708-0.009l0,0c0.749,0.749,0.753,1.963,0.009,2.707l0,0
						c-0.019,0.018-0.036,0.036-0.055,0.054l0,0c-0.018,0.018-0.031,0.032-0.05,0.05l0,0c0,0,0,0,0.005,0.004l0,0
						c-0.749,0.749-1.963,0.745-2.707,0l0,0C685.454,220.841,685.454,219.631,686.203,218.882z M645.444,156.864
						c-0.353-1.001,0.171-2.094,1.169-2.441l0,0c1.001-0.352,2.093,0.171,2.44,1.168l0,0c0.352,1.001-0.172,2.093-1.169,2.441l0,0
						c-0.722,0.252-1.488,0.054-1.994-0.451l0,0C645.697,157.388,645.543,157.144,645.444,156.864z M694.974,204.878
						L694.974,204.878c0.348-0.997,1.439-1.529,2.437-1.182l0,0c1.002,0.343,1.529,1.43,1.187,2.432l0,0l0,0l0,0
						c-0.347,0.997-1.439,1.529-2.437,1.182l0,0c-0.284-0.095-0.532-0.252-0.73-0.451l0,0
						C694.929,206.358,694.73,205.591,694.974,204.878z M662.489,154.058c0.113-1.051,1.061-1.809,2.107-1.692l0,0
						c1.051,0.113,1.81,1.061,1.696,2.112l0,0c-0.112,1.051-1.061,1.809-2.111,1.696l0,0c-0.451-0.054-0.849-0.253-1.146-0.551l0,0
						C662.639,155.226,662.422,154.658,662.489,154.058z M696.752,188.573L696.752,188.573c-0.122-1.051,0.637-1.999,1.688-2.121
						l0,0c1.051-0.122,1.998,0.636,2.115,1.683l0,0c0.122,1.051-0.627,1.999-1.678,2.121l0,0c-0.604,0.072-1.178-0.149-1.575-0.546
						l0,0C697.004,189.412,696.806,189.024,696.752,188.573z M679.065,158.903c0.56-0.893,1.741-1.164,2.635-0.604l0,0
						c0.902,0.56,1.174,1.742,0.609,2.639l0,0c-0.56,0.894-1.741,1.164-2.635,0.604l0,0c-0.127-0.081-0.244-0.171-0.343-0.271l0,0
						C678.714,160.654,678.583,159.675,679.065,158.903z M691.297,173.11L691.297,173.11c-0.559-0.893-0.298-2.075,0.596-2.644l0,0
						c0.889-0.563,2.075-0.298,2.644,0.596l0,0l0,0l0,0c0.564,0.889,0.298,2.075-0.595,2.644l0,0
						c-0.772,0.482-1.756,0.356-2.378-0.267l0,0C691.464,173.341,691.374,173.233,691.297,173.11z"/>
				</g>
			</g>
		</g>
		<g>
			<g>
				<g>
					<g>
						<circle fill="#FFC64A" cx="538.916" cy="110.684" r="28.06"/>
					</g>
				</g>
				<g>
					<g>
						<circle fill="#DBAA40" cx="538.916" cy="110.684" r="22.84"/>
					</g>
				</g>
				<g>
					<g>
						<g>
							<path fill="#FFC64A" d="M532.003,120.809c-1.141-1.013-1.711-2.624-1.711-4.835v-0.943h6.285v0.664
								c0,1.047,0.197,1.769,0.594,2.165c0.395,0.396,0.919,0.594,1.571,0.594c0.675,0,1.191-0.221,1.553-0.664
								c0.361-0.442,0.541-0.978,0.541-1.606c0-0.791-0.25-1.419-0.751-1.885c-0.5-0.465-1.129-0.867-1.884-1.205
								c-0.758-0.337-1.578-0.675-2.462-1.013c-0.885-0.337-1.706-0.779-2.462-1.327c-0.757-0.546-1.385-1.262-1.885-2.147
								c-0.501-0.884-0.751-2.037-0.751-3.457c0-4.352,2.13-6.878,6.389-7.576v-2.025h3.212v2.025
								c2.328,0.233,4.016,0.937,5.063,2.112c1.048,1.176,1.571,2.962,1.571,5.359h-6.075v-0.523c0-0.698-0.151-1.309-0.453-1.833
								c-0.303-0.523-0.769-0.786-1.397-0.786c-0.697,0-1.21,0.227-1.535,0.681c-0.326,0.454-0.489,0.948-0.489,1.483
								c0,0.815,0.262,1.455,0.786,1.92c0.523,0.466,1.181,0.867,1.972,1.205c0.792,0.337,1.642,0.663,2.549,0.978
								c0.908,0.314,1.758,0.75,2.55,1.309c0.79,0.559,1.448,1.292,1.972,2.2s0.786,2.118,0.786,3.631
								c0,2.374-0.617,4.132-1.851,5.272c-1.234,1.14-3.049,1.838-5.447,2.094v3.143h-3.211v-3.143
								C534.819,122.443,533.144,121.821,532.003,120.809z"/>
						</g>
					</g>
				</g>
			</g>
			<g>
				<g>
					<path fill="#E8F0EC" d="M529.899,150.37c-1.033-0.229-1.678-1.256-1.441-2.284l0,0c0.229-1.034,1.257-1.678,2.284-1.448l0,0
						c1.033,0.236,1.678,1.263,1.448,2.291l0,0c-0.204,0.886-0.995,1.493-1.87,1.493l0,0
						C530.18,150.421,530.04,150.408,529.899,150.37z M545.704,148.916c-0.236-1.027,0.408-2.055,1.442-2.291l0,0
						c1.033-0.236,2.055,0.409,2.29,1.442l0,0c0.236,1.027-0.408,2.054-1.441,2.291l0,0l0,0l0,0
						c-0.141,0.032-0.281,0.051-0.422,0.051l0,0C546.699,150.409,545.908,149.802,545.704,148.916z M513.578,142.528
						c0,0,0,0,0.007,0l0,0c-0.83-0.657-0.964-1.863-0.307-2.687l0,0c0.657-0.829,1.863-0.963,2.687-0.306l0,0
						c0.829,0.657,0.963,1.863,0.306,2.686l0,0c-0.376,0.479-0.938,0.727-1.499,0.727l0,0
						C514.356,142.949,513.936,142.809,513.578,142.528z M561.61,142.184c-0.663-0.823-0.529-2.029,0.301-2.686l0,0
						c0.823-0.664,2.028-0.523,2.692,0.3l0,0c0.657,0.823,0.523,2.029-0.307,2.686l0,0c0,0,0,0,0,0.006l0,0
						c-0.351,0.28-0.772,0.414-1.192,0.414l0,0C562.542,142.904,561.987,142.662,561.61,142.184z M502.271,128.402
						c-0.459-0.951-0.063-2.099,0.887-2.559l0,0c0.951-0.466,2.1-0.064,2.559,0.887l0,0c0.46,0.951,0.064,2.099-0.887,2.559l0,0
						c-0.273,0.127-0.555,0.192-0.836,0.192l0,0C503.286,129.48,502.604,129.084,502.271,128.402z M573.032,129.231
						c-0.951-0.459-1.353-1.608-0.894-2.559l0,0c0.46-0.951,1.602-1.353,2.559-0.894l0,0c0.95,0.459,1.346,1.602,0.894,2.559l0,0
						l0,0l0,0c-0.332,0.682-1.015,1.084-1.729,1.084l0,0C573.581,129.416,573.3,129.359,573.032,129.231z M498.22,110.76
						c0-1.06,0.855-1.921,1.915-1.921l0,0c1.053,0,1.914,0.855,1.914,1.908l0,0c0,1.059-0.855,1.92-1.908,1.92l0,0
						C499.082,112.667,498.22,111.813,498.22,110.76z M575.782,110.683c0-0.019,0-0.032,0-0.051l0,0
						c-0.007-0.025-0.007-0.051-0.007-0.083l0,0c0-1.053,0.855-1.914,1.908-1.92l0,0c1.06,0,1.92,0.855,1.92,1.908l0,0
						c0,0.026,0,0.051,0,0.077l0,0c0,0.026,0,0.045,0,0.07l0,0c0,0,0,0,0.007,0l0,0c0,1.059-0.861,1.914-1.914,1.914l0,0
						C576.638,112.597,575.782,111.742,575.782,110.683z M503.107,95.65c-0.957-0.459-1.359-1.602-0.899-2.552l0,0
						c0.46-0.957,1.602-1.359,2.553-0.9l0,0c0.957,0.459,1.358,1.602,0.899,2.552l0,0c-0.332,0.689-1.015,1.091-1.729,1.091l0,0
						C503.656,95.842,503.376,95.778,503.107,95.65z M572.081,94.578L572.081,94.578c-0.459-0.95-0.063-2.099,0.888-2.558l0,0
						c0.95-0.466,2.092-0.07,2.559,0.88l0,0l0,0l0,0c0.459,0.951,0.063,2.099-0.888,2.559l0,0c-0.268,0.134-0.555,0.198-0.835,0.198
						l0,0C573.096,95.657,572.413,95.255,572.081,94.578z M513.176,81.613c-0.663-0.823-0.529-2.029,0.294-2.687l0,0
						c0.823-0.664,2.029-0.529,2.692,0.293l0,0c0.664,0.823,0.53,2.029-0.293,2.693l0,0c-0.357,0.281-0.779,0.421-1.2,0.421l0,0
						C514.107,82.334,513.553,82.085,513.176,81.613z M561.809,81.792L561.809,81.792c-0.829-0.657-0.963-1.863-0.307-2.693l0,0
						c0.658-0.829,1.863-0.963,2.687-0.306l0,0c0.83,0.657,0.97,1.857,0.313,2.686l0,0c-0.376,0.479-0.938,0.728-1.499,0.728l0,0
						C562.581,82.207,562.166,82.073,561.809,81.792z M528.324,73.318c-0.236-1.027,0.407-2.054,1.436-2.291l0,0
						c1.033-0.242,2.061,0.402,2.297,1.436l0,0c0.235,1.027-0.408,2.055-1.437,2.291l0,0c-0.146,0.032-0.293,0.051-0.434,0.051l0,0
						C529.313,74.805,528.527,74.206,528.324,73.318z M547.019,74.716L547.019,74.716c-1.027-0.236-1.678-1.257-1.448-2.291l0,0
						c0.229-1.027,1.257-1.678,2.29-1.449l0,0l0,0l0,0c1.028,0.23,1.679,1.257,1.449,2.291l0,0c-0.204,0.887-0.989,1.494-1.87,1.494
						l0,0C547.3,74.761,547.159,74.748,547.019,74.716z"/>
				</g>
			</g>
		</g>
		<g>
			<circle fill="#FFC64A" cx="497.232" cy="309.189" r="13.623"/>
		</g>
		<g>
			<circle fill="#FFC64A" cx="586.742" cy="213.289" r="13.623"/>
		</g>
		<g>
			<circle fill="#FFC64A" cx="572.577" cy="391.998" r="13.624"/>
		</g>
		<g>
			<circle fill="#FFC64A" cx="634.366" cy="422.758" r="13.624"/>
		</g>
		<g>
			<circle fill="#FFC64A" cx="490" cy="168.342" r="13.623"/>
		</g>
		<g>
			<circle fill="#FFC64A" cx="416.107" cy="324.137" r="13.624"/>
		</g>
		<g>
			<g>
				<g>
					<path fill="#E8F0EC" d="M711.301,298.69c-0.828,0-1.5-0.672-1.5-1.5v-26.295c0-0.829,0.672-1.5,1.5-1.5s1.5,0.671,1.5,1.5
						v26.295C712.801,298.019,712.129,298.69,711.301,298.69z"/>
				</g>
			</g>
			<g>
				<g>
					<path fill="#E8F0EC" d="M720.034,285.543h-17.466c-0.828,0-1.5-0.671-1.5-1.5s0.672-1.5,1.5-1.5h17.466
						c0.828,0,1.5,0.671,1.5,1.5S720.862,285.543,720.034,285.543z"/>
				</g>
			</g>
		</g>
		<g>
			<g>
				<g>
					<path fill="#E8F0EC" d="M461.97,441.97c-0.828,0-1.5-0.672-1.5-1.5v-26.297c0-0.828,0.672-1.5,1.5-1.5s1.5,0.672,1.5,1.5
						v26.297C463.47,441.298,462.798,441.97,461.97,441.97z"/>
				</g>
			</g>
			<g>
				<g>
					<path fill="#E8F0EC" d="M470.703,428.821h-17.466c-0.828,0-1.5-0.672-1.5-1.5s0.672-1.5,1.5-1.5h17.466
						c0.828,0,1.5,0.672,1.5,1.5S471.531,428.821,470.703,428.821z"/>
				</g>
			</g>
		</g>
		<g>
			<g>
				<g>
					<path fill="#E8F0EC" d="M404,147.171c-0.828,0-1.5-0.671-1.5-1.5v-26.296c0-0.829,0.672-1.5,1.5-1.5s1.5,0.671,1.5,1.5v26.296
						C405.5,146.5,404.828,147.171,404,147.171z"/>
				</g>
			</g>
			<g>
				<g>
					<path fill="#E8F0EC" d="M412.733,134.024h-17.466c-0.829,0-1.5-0.671-1.5-1.5s0.671-1.5,1.5-1.5h17.466
						c0.828,0,1.5,0.671,1.5,1.5S413.562,134.024,412.733,134.024z"/>
				</g>
			</g>
		</g>
		<g>
			<g>
				<g>
					<path fill="#E8F0EC" d="M653.511,81.958c-0.828,0-1.5-0.671-1.5-1.5V54.162c0-0.829,0.672-1.5,1.5-1.5s1.5,0.671,1.5,1.5
						v26.296C655.011,81.287,654.339,81.958,653.511,81.958z"/>
				</g>
			</g>
			<g>
				<g>
					<path fill="#E8F0EC" d="M662.243,68.811h-17.466c-0.828,0-1.5-0.671-1.5-1.5s0.672-1.5,1.5-1.5h17.466
						c0.828,0,1.5,0.671,1.5,1.5S663.071,68.811,662.243,68.811z"/>
				</g>
			</g>
		</g>
	</g>
</g>
</svg>
